<?xml version="1.0" standalone="no"?>
<!DOCTYPE svg PUBLIC "-//W3C//DTD SVG 20010904//EN"
 "http://www.w3.org/TR/2001/REC-SVG-20010904/DTD/svg10.dtd">
<svg version="1.0" xmlns="http://www.w3.org/2000/svg"
 width="748.000000pt" height="337.000000pt" viewBox="0 0 748.000000 337.000000"
 preserveAspectRatio="xMidYMid meet">

<g transform="translate(0.000000,337.000000) scale(0.100000,-0.100000)"        
fill="#000000" stroke="none">
<path fill="#FF0000" d="M5625 2526 c-162 -51 -279 -189 -307 -361 -30 -183 76 -376 252 -459    
88 -41 223 -48 314 -17 80 28 148 73 196 131 201 240 102 598 -194 700 -69 23    
-197 26 -261 6z" />
<path fill="#FFFFFF" d="M5860 2325 l0 -105 105 0 105 0 0 -114 0 -114 -102 1 -103 0      
-3 -106 -3 -107 -109 0 -110 0 0 105 0 105 -62 2 c-73 1 -116 3 -141 6 -16 2
-17 13 -15 110 l3 107 108 3 107 3 0 104 0 105 110 0 110 0 0 -105z"/>
<path d="M1945 2046 c-71 -18 -105 -38 -152 -89 -35 -38 -83 -135 -83 -170 -1
-27 -37 -58 -75 -64 -42 -6 -55 -17 -55 -45 0 -15 9 -18 50 -18 28 0 50 -4 50
-8 0 -24 -162 -724 -176 -762 -21 -55 -55 -90 -87 -90 -26 0 -37 -16 -37 -56
0 -22 4 -24 43 -24 72 0 141 26 194 74 59 53 95 117 122 216 18 67 141 628
141 644 0 3 35 6 79 6 l79 0 6 31 c12 59 12 59 -68 59 l-73 0 18 81 c30 127
61 168 114 155 18 -5 26 -16 31 -42 6 -35 7 -35 53 -32 l46 3 14 62 c8 35 11
66 7 70 -13 13 -190 13 -241 -1z"/>
<path d="M2995 2051 c-42 -5 -51 -10 -53 -28 -2 -16 2 -23 12 -23 9 0 25 -9
37 -21 17 -17 19 -28 14 -62 -7 -42 -181 -827 -191 -859 -5 -16 4 -18 98 -18
l103 0 39 180 c36 169 40 180 61 180 12 0 27 -6 33 -13 6 -7 23 -66 37 -132
14 -65 33 -132 43 -148 67 -116 226 -97 346 41 19 22 19 22 -3 46 l-23 24 -39
-39 c-44 -44 -72 -49 -93 -16 -21 32 -99 309 -89 317 4 4 53 41 108 83 134
101 166 135 154 165 -8 22 -11 23 -136 20 -124 -3 -128 -4 -131 -25 -2 -13 1
-23 7 -23 22 0 33 -40 21 -76 -18 -55 -164 -164 -220 -164 -11 0 -20 3 -20 7
0 9 119 552 126 576 5 15 -4 17 -93 15 -54 0 -120 -4 -148 -7z"/>
<path d="M2477 1952 c-9 -42 -17 -81 -17 -85 0 -4 40 -7 89 -7 l90 0 17 78 c9
42 19 80 21 85 2 4 -38 7 -90 7 l-94 0 -16 -78z"/>
<path d="M2405 1751 c-63 -5 -70 -8 -73 -28 -2 -16 2 -23 12 -23 9 0 25 -9 36
-20 25 -25 23 -41 -33 -270 -59 -244 -54 -323 23 -363 26 -14 50 -17 95 -14
70 5 122 29 185 85 l45 40 -24 26 -24 26 -43 -40 c-60 -56 -104 -51 -104 11 0
23 111 527 125 567 5 13 -81 14 -220 3z"/>
<path d="M4019 1747 c-176 -50 -289 -215 -306 -447 -12 -174 51 -270 176 -270
67 0 129 29 197 92 62 58 64 59 64 33 0 -45 29 -92 67 -110 73 -35 172 -6 268
78 l40 35 -24 26 -24 26 -43 -40 c-62 -57 -104 -51 -104 14 0 17 29 151 63
298 l63 266 -38 6 c-31 5 -46 2 -70 -16 -31 -21 -31 -22 -82 -3 -64 23 -187
29 -247 12z m171 -77 c27 -27 27 -116 0 -226 -25 -107 -59 -182 -106 -233 -64
-71 -124 -90 -160 -50 -41 46 -10 268 55 397 58 114 157 166 211 112z"/>
<path d="M4718 1747 c-37 -14 -125 -75 -148 -102 -11 -13 -9 -20 10 -40 l23
-25 43 40 c64 58 104 53 104 -15 0 -13 -27 -140 -60 -283 -33 -143 -60 -265
-60 -271 0 -7 35 -11 100 -11 55 0 100 1 100 3 0 26 95 421 109 453 58 131
170 190 187 99 l6 -35 63 0 62 0 19 93 20 92 -30 9 c-46 12 -137 1 -187 -24
-24 -12 -69 -48 -99 -80 l-55 -58 0 49 c0 41 -5 53 -32 80 -26 27 -41 33 -85
36 -29 2 -69 -3 -90 -10z"/>
</g>
</svg>
